<mxfile host="65bd71144e">
    <diagram id="vFNcpWiDTYlWskPu0x8N" name="ページ1">
<<<<<<< HEAD
        <mxGraphModel dx="2055" dy="2007" grid="1" gridSize="10" guides="1" tooltips="1" connect="1" arrows="1" fold="1" page="1" pageScale="1" pageWidth="827" pageHeight="1169" math="0" shadow="0">
=======
<<<<<<< HEAD:plan/uml/sequence/UC010.dio
        <mxGraphModel dx="2258" dy="2617" grid="1" gridSize="10" guides="1" tooltips="1" connect="1" arrows="1" fold="1" page="1" pageScale="1" pageWidth="827" pageHeight="1169" math="0" shadow="0">
=======
        <mxGraphModel dx="1323" dy="1405" grid="1" gridSize="10" guides="1" tooltips="1" connect="1" arrows="1" fold="1" page="1" pageScale="1" pageWidth="827" pageHeight="1169" math="0" shadow="0">
>>>>>>> 7842e23df99b755f4d72230fc0b68372dd5972ca:plan/uml/sequence/UC010.drawio
>>>>>>> 0894ed2775b1d53241c220fcd7a25aa28018077a
            <root>
                <mxCell id="0"/>
                <mxCell id="1" parent="0"/>
                <mxCell id="17" value="Actor" style="shape=umlActor;verticalLabelPosition=bottom;verticalAlign=top;html=1;" parent="1" vertex="1">
<<<<<<< HEAD:plan/uml/sequence/UC010.dio
                    <mxGeometry x="-867" y="-1216" width="30" height="60" as="geometry"/>
                </mxCell>
                <mxCell id="29" value="" style="html=1;points=[[0,0,0,0,5],[0,1,0,0,-5],[1,0,0,0,5],[1,1,0,0,-5]];perimeter=orthogonalPerimeter;outlineConnect=0;targetShapes=umlLifeline;portConstraint=eastwest;newEdgeStyle={&quot;curved&quot;:0,&quot;rounded&quot;:0};" parent="1" vertex="1">
                    <mxGeometry x="-748" y="-1095" width="10" height="260" as="geometry"/>
                </mxCell>
                <mxCell id="35" value="Product&lt;div&gt;Form&lt;/div&gt;" style="shape=umlLifeline;perimeter=lifelinePerimeter;whiteSpace=wrap;html=1;container=1;dropTarget=0;collapsible=0;recursiveResize=0;outlineConnect=0;portConstraint=eastwest;newEdgeStyle={&quot;curved&quot;:0,&quot;rounded&quot;:0};" parent="1" vertex="1">
                    <mxGeometry x="-647" y="-1215" width="100" height="1460" as="geometry"/>
                </mxCell>
                <mxCell id="99" value="" style="html=1;points=[[0,0,0,0,5],[0,1,0,0,-5],[1,0,0,0,5],[1,1,0,0,-5]];perimeter=orthogonalPerimeter;outlineConnect=0;targetShapes=umlLifeline;portConstraint=eastwest;newEdgeStyle={&quot;curved&quot;:0,&quot;rounded&quot;:0};" parent="35" vertex="1">
                    <mxGeometry x="45" y="530" width="10" height="40" as="geometry"/>
                </mxCell>
                <mxCell id="34" value="" style="line;strokeWidth=1;fillColor=none;align=left;verticalAlign=middle;spacingTop=-1;spacingLeft=3;spacingRight=3;rotatable=0;labelPosition=right;points=[];portConstraint=eastwest;strokeColor=inherit;" parent="1" vertex="1">
                    <mxGeometry x="-1160" y="-1260" width="40" height="8" as="geometry"/>
                </mxCell>
                <mxCell id="36" value="Session&lt;div&gt;&lt;span style=&quot;background-color: transparent;&quot;&gt;Controller&lt;/span&gt;&lt;/div&gt;" style="shape=umlLifeline;perimeter=lifelinePerimeter;whiteSpace=wrap;html=1;container=1;dropTarget=0;collapsible=0;recursiveResize=0;outlineConnect=0;portConstraint=eastwest;newEdgeStyle={&quot;curved&quot;:0,&quot;rounded&quot;:0};" parent="1" vertex="1">
                    <mxGeometry x="-793" y="-1216" width="100" height="1170" as="geometry"/>
                </mxCell>
=======
                    <mxGeometry x="-760" y="-1060" width="30" height="60" as="geometry"/>
                </mxCell>
                <mxCell id="24" style="edgeStyle=none;html=1;exitX=0.75;exitY=0;exitDx=0;exitDy=0;entryX=0;entryY=0;entryDx=0;entryDy=0;" parent="1" edge="1">
                    <mxGeometry relative="1" as="geometry">
                        <mxPoint x="-447.49999999999955" y="-1055" as="sourcePoint"/>
                        <mxPoint x="-529.9999999999995" y="-1055" as="targetPoint"/>
                    </mxGeometry>
                </mxCell>
                <mxCell id="29" value="" style="html=1;points=[[0,0,0,0,5],[0,1,0,0,-5],[1,0,0,0,5],[1,1,0,0,-5]];perimeter=orthogonalPerimeter;outlineConnect=0;targetShapes=umlLifeline;portConstraint=eastwest;newEdgeStyle={&quot;curved&quot;:0,&quot;rounded&quot;:0};" parent="1" vertex="1">
                    <mxGeometry x="-641" y="-939" width="10" height="260" as="geometry"/>
                </mxCell>
                <mxCell id="35" value="Product&lt;div&gt;Form&lt;/div&gt;" style="shape=umlLifeline;perimeter=lifelinePerimeter;whiteSpace=wrap;html=1;container=1;dropTarget=0;collapsible=0;recursiveResize=0;outlineConnect=0;portConstraint=eastwest;newEdgeStyle={&quot;curved&quot;:0,&quot;rounded&quot;:0};" parent="1" vertex="1">
                    <mxGeometry x="-540" y="-1070" width="100" height="1460" as="geometry"/>
                </mxCell>
                <mxCell id="99" value="" style="html=1;points=[[0,0,0,0,5],[0,1,0,0,-5],[1,0,0,0,5],[1,1,0,0,-5]];perimeter=orthogonalPerimeter;outlineConnect=0;targetShapes=umlLifeline;portConstraint=eastwest;newEdgeStyle={&quot;curved&quot;:0,&quot;rounded&quot;:0};" parent="35" vertex="1">
                    <mxGeometry x="45" y="530" width="10" height="40" as="geometry"/>
                </mxCell>
                <mxCell id="36" value="Session&lt;div&gt;&lt;span style=&quot;background-color: transparent;&quot;&gt;Controller&lt;/span&gt;&lt;/div&gt;" style="shape=umlLifeline;perimeter=lifelinePerimeter;whiteSpace=wrap;html=1;container=1;dropTarget=0;collapsible=0;recursiveResize=0;outlineConnect=0;portConstraint=eastwest;newEdgeStyle={&quot;curved&quot;:0,&quot;rounded&quot;:0};" parent="1" vertex="1">
                    <mxGeometry x="-686" y="-1060" width="100" height="1170" as="geometry"/>
                </mxCell>
>>>>>>> 7842e23df99b755f4d72230fc0b68372dd5972ca:plan/uml/sequence/UC010.drawio
                <mxCell id="72" value="" style="html=1;points=[[0,0,0,0,5],[0,1,0,0,-5],[1,0,0,0,5],[1,1,0,0,-5]];perimeter=orthogonalPerimeter;outlineConnect=0;targetShapes=umlLifeline;portConstraint=eastwest;newEdgeStyle={&quot;curved&quot;:0,&quot;rounded&quot;:0};" parent="36" vertex="1">
                    <mxGeometry x="45" y="696" width="10" height="363" as="geometry"/>
                </mxCell>
                <mxCell id="98" value="" style="html=1;points=[[0,0,0,0,5],[0,1,0,0,-5],[1,0,0,0,5],[1,1,0,0,-5]];perimeter=orthogonalPerimeter;outlineConnect=0;targetShapes=umlLifeline;portConstraint=eastwest;newEdgeStyle={&quot;curved&quot;:0,&quot;rounded&quot;:0};" parent="36" vertex="1">
                    <mxGeometry x="45" y="520" width="10" height="100" as="geometry"/>
                </mxCell>
                <mxCell id="37" value="Product&lt;div&gt;Helper&lt;/div&gt;" style="shape=umlLifeline;perimeter=lifelinePerimeter;whiteSpace=wrap;html=1;container=1;dropTarget=0;collapsible=0;recursiveResize=0;outlineConnect=0;portConstraint=eastwest;newEdgeStyle={&quot;curved&quot;:0,&quot;rounded&quot;:0};" parent="1" vertex="1">
<<<<<<< HEAD:plan/uml/sequence/UC010.dio
                    <mxGeometry x="-490" y="-1215" width="100" height="2330" as="geometry"/>
                </mxCell>
                <mxCell id="62" value="" style="html=1;points=[[0,0,0,0,5],[0,1,0,0,-5],[1,0,0,0,5],[1,1,0,0,-5]];perimeter=orthogonalPerimeter;outlineConnect=0;targetShapes=umlLifeline;portConstraint=eastwest;newEdgeStyle={&quot;curved&quot;:0,&quot;rounded&quot;:0};" parent="37" vertex="1">
                    <mxGeometry x="45" y="715" width="10" height="80" as="geometry"/>
                </mxCell>
                <mxCell id="38" value="Product&lt;div&gt;Service&lt;/div&gt;" style="shape=umlLifeline;perimeter=lifelinePerimeter;whiteSpace=wrap;html=1;container=1;dropTarget=0;collapsible=0;recursiveResize=0;outlineConnect=0;portConstraint=eastwest;newEdgeStyle={&quot;curved&quot;:0,&quot;rounded&quot;:0};" parent="1" vertex="1">
                    <mxGeometry x="-341" y="-1216" width="100" height="1501" as="geometry"/>
=======
                    <mxGeometry x="-393" y="-1070" width="100" height="2330" as="geometry"/>
                </mxCell>
                <mxCell id="62" value="" style="html=1;points=[[0,0,0,0,5],[0,1,0,0,-5],[1,0,0,0,5],[1,1,0,0,-5]];perimeter=orthogonalPerimeter;outlineConnect=0;targetShapes=umlLifeline;portConstraint=eastwest;newEdgeStyle={&quot;curved&quot;:0,&quot;rounded&quot;:0};" parent="37" vertex="1">
                    <mxGeometry x="45" y="736" width="10" height="70" as="geometry"/>
                </mxCell>
                <mxCell id="38" value="Product&lt;div&gt;Service&lt;/div&gt;" style="shape=umlLifeline;perimeter=lifelinePerimeter;whiteSpace=wrap;html=1;container=1;dropTarget=0;collapsible=0;recursiveResize=0;outlineConnect=0;portConstraint=eastwest;newEdgeStyle={&quot;curved&quot;:0,&quot;rounded&quot;:0};" parent="1" vertex="1">
                    <mxGeometry x="-234" y="-1061" width="100" height="1501" as="geometry"/>
>>>>>>> 7842e23df99b755f4d72230fc0b68372dd5972ca:plan/uml/sequence/UC010.drawio
                </mxCell>
                <mxCell id="45" value="" style="html=1;points=[[0,0,0,0,5],[0,1,0,0,-5],[1,0,0,0,5],[1,1,0,0,-5]];perimeter=orthogonalPerimeter;outlineConnect=0;targetShapes=umlLifeline;portConstraint=eastwest;newEdgeStyle={&quot;curved&quot;:0,&quot;rounded&quot;:0};" parent="38" vertex="1">
                    <mxGeometry x="45" y="140" width="10" height="150" as="geometry"/>
                </mxCell>
                <mxCell id="73" value="" style="html=1;points=[[0,0,0,0,5],[0,1,0,0,-5],[1,0,0,0,5],[1,1,0,0,-5]];perimeter=orthogonalPerimeter;outlineConnect=0;targetShapes=umlLifeline;portConstraint=eastwest;newEdgeStyle={&quot;curved&quot;:0,&quot;rounded&quot;:0};" parent="38" vertex="1">
                    <mxGeometry x="45" y="847" width="10" height="149" as="geometry"/>
                </mxCell>
                <mxCell id="39" value="form()" style="html=1;verticalAlign=bottom;endArrow=block;curved=0;rounded=0;" parent="1" target="36" edge="1">
                    <mxGeometry width="80" relative="1" as="geometry">
                        <mxPoint x="-847" y="-1098" as="sourcePoint"/>
                        <mxPoint x="-794" y="-1098" as="targetPoint"/>
                    </mxGeometry>
                </mxCell>
                <mxCell id="40" value="getProduct&lt;div&gt;Category()&lt;/div&gt;" style="html=1;verticalAlign=bottom;endArrow=block;curved=0;rounded=0;" parent="1" target="45" edge="1">
                    <mxGeometry width="80" relative="1" as="geometry">
                        <mxPoint x="-738" y="-1076" as="sourcePoint"/>
                        <mxPoint x="-297" y="-1076" as="targetPoint"/>
                        <Array as="points">
                            <mxPoint x="-334.7" y="-1076"/>
                        </Array>
                    </mxGeometry>
                </mxCell>
                <mxCell id="41" value="Product&lt;div&gt;Information&lt;/div&gt;&lt;div&gt;Repository&lt;/div&gt;" style="shape=umlLifeline;perimeter=lifelinePerimeter;whiteSpace=wrap;html=1;container=1;dropTarget=0;collapsible=0;recursiveResize=0;outlineConnect=0;portConstraint=eastwest;newEdgeStyle={&quot;curved&quot;:0,&quot;rounded&quot;:0};" parent="1" vertex="1">
<<<<<<< HEAD:plan/uml/sequence/UC010.dio
                    <mxGeometry x="-181" y="-1218" width="100" height="960" as="geometry"/>
=======
                    <mxGeometry x="-70" y="-1060" width="100" height="960" as="geometry"/>
>>>>>>> 7842e23df99b755f4d72230fc0b68372dd5972ca:plan/uml/sequence/UC010.drawio
                </mxCell>
                <mxCell id="49" value="" style="html=1;points=[[0,0,0,0,5],[0,1,0,0,-5],[1,0,0,0,5],[1,1,0,0,-5]];perimeter=orthogonalPerimeter;outlineConnect=0;targetShapes=umlLifeline;portConstraint=eastwest;newEdgeStyle={&quot;curved&quot;:0,&quot;rounded&quot;:0};" parent="41" vertex="1">
                    <mxGeometry x="45" y="164" width="10" height="106" as="geometry"/>
                </mxCell>
                <mxCell id="42" value="Product&lt;div&gt;Repositpry&lt;/div&gt;" style="shape=umlLifeline;perimeter=lifelinePerimeter;whiteSpace=wrap;html=1;container=1;dropTarget=0;collapsible=0;recursiveResize=0;outlineConnect=0;portConstraint=eastwest;newEdgeStyle={&quot;curved&quot;:0,&quot;rounded&quot;:0};" parent="1" vertex="1">
<<<<<<< HEAD:plan/uml/sequence/UC010.dio
                    <mxGeometry x="-37" y="-1218" width="100" height="942" as="geometry"/>
                </mxCell>
                <mxCell id="50" value="" style="html=1;points=[[0,0,0,0,5],[0,1,0,0,-5],[1,0,0,0,5],[1,1,0,0,-5]];perimeter=orthogonalPerimeter;outlineConnect=0;targetShapes=umlLifeline;portConstraint=eastwest;newEdgeStyle={&quot;curved&quot;:0,&quot;rounded&quot;:0};" parent="42" vertex="1">
                    <mxGeometry x="201" y="182" width="10" height="48" as="geometry"/>
                </mxCell>
=======
                    <mxGeometry x="70" y="-1062" width="100" height="942" as="geometry"/>
                </mxCell>
<<<<<<< HEAD
                <mxCell id="50" value="" style="html=1;points=[[0,0,0,0,5],[0,1,0,0,-5],[1,0,0,0,5],[1,1,0,0,-5]];perimeter=orthogonalPerimeter;outlineConnect=0;targetShapes=umlLifeline;portConstraint=eastwest;newEdgeStyle={&quot;curved&quot;:0,&quot;rounded&quot;:0};" parent="42" vertex="1">
                    <mxGeometry x="45" y="182" width="10" height="48" as="geometry"/>
                </mxCell>
=======
>>>>>>> 7842e23df99b755f4d72230fc0b68372dd5972ca:plan/uml/sequence/UC010.drawio
>>>>>>> 0894ed2775b1d53241c220fcd7a25aa28018077a
                <mxCell id="78" value="" style="html=1;points=[[0,0,0,0,5],[0,1,0,0,-5],[1,0,0,0,5],[1,1,0,0,-5]];perimeter=orthogonalPerimeter;outlineConnect=0;targetShapes=umlLifeline;portConstraint=eastwest;newEdgeStyle={&quot;curved&quot;:0,&quot;rounded&quot;:0};" parent="42" vertex="1">
                    <mxGeometry x="45" y="878" width="10" height="100" as="geometry"/>
                </mxCell>
                <mxCell id="43" value="" style="shape=cylinder3;whiteSpace=wrap;html=1;boundedLbl=1;backgroundOutline=1;size=15;" parent="1" vertex="1">
<<<<<<< HEAD:plan/uml/sequence/UC010.dio
                    <mxGeometry x="153" y="-1218" width="40" height="50" as="geometry"/>
                </mxCell>
                <mxCell id="44" value="データベース" style="text;html=1;align=center;verticalAlign=middle;whiteSpace=wrap;rounded=0;" parent="1" vertex="1">
                    <mxGeometry x="123" y="-1168" width="90" height="30" as="geometry"/>
=======
                    <mxGeometry x="260" y="-1062" width="40" height="50" as="geometry"/>
                </mxCell>
                <mxCell id="44" value="データベース" style="text;html=1;align=center;verticalAlign=middle;whiteSpace=wrap;rounded=0;" parent="1" vertex="1">
                    <mxGeometry x="230" y="-1012" width="90" height="30" as="geometry"/>
>>>>>>> 7842e23df99b755f4d72230fc0b68372dd5972ca:plan/uml/sequence/UC010.drawio
                </mxCell>
                <mxCell id="46" value="&lt;span style=&quot;color: rgb(0, 0, 0); font-size: 12px; text-wrap-mode: wrap;&quot;&gt;ListMProductCategory&amp;gt;&lt;/span&gt;" style="html=1;verticalAlign=bottom;labelBackgroundColor=none;endArrow=open;endFill=0;dashed=1;" parent="1" target="36" edge="1">
                    <mxGeometry width="160" relative="1" as="geometry">
                        <mxPoint x="-291.5" y="-926" as="sourcePoint"/>
                        <mxPoint x="-677" y="-926" as="targetPoint"/>
                    </mxGeometry>
                </mxCell>
                <mxCell id="52" value="" style="endArrow=classic;html=1;" parent="1" edge="1">
                    <mxGeometry width="50" height="50" relative="1" as="geometry">
                        <mxPoint x="-286.99666666666656" y="-1056" as="sourcePoint"/>
                        <mxPoint x="-126.33" y="-1056" as="targetPoint"/>
                    </mxGeometry>
                </mxCell>
<<<<<<< HEAD
                <mxCell id="56" value="" style="html=1;verticalAlign=bottom;labelBackgroundColor=none;endArrow=open;endFill=0;dashed=1;" parent="1" edge="1">
=======
<<<<<<< HEAD:plan/uml/sequence/UC010.dio
                <mxCell id="56" value="" style="html=1;verticalAlign=bottom;labelBackgroundColor=none;endArrow=open;endFill=0;dashed=1;" parent="1" edge="1" target="49" source="42">
                    <mxGeometry width="160" relative="1" as="geometry">
                        <mxPoint x="12.5" y="-986" as="sourcePoint"/>
                        <mxPoint x="-122" y="-986" as="targetPoint"/>
=======
                <mxCell id="56" value="" style="html=1;verticalAlign=bottom;labelBackgroundColor=none;endArrow=open;endFill=0;dashed=1;" parent="1" edge="1" source="50">
>>>>>>> 0894ed2775b1d53241c220fcd7a25aa28018077a
                    <mxGeometry width="160" relative="1" as="geometry">
                        <mxPoint x="119.5" y="-830" as="sourcePoint"/>
                        <mxPoint x="-15" y="-830" as="targetPoint"/>
                    </mxGeometry>
                </mxCell>
                <mxCell id="58" value="" style="html=1;verticalAlign=bottom;labelBackgroundColor=none;endArrow=open;endFill=0;dashed=1;" parent="1" edge="1">
                    <mxGeometry width="160" relative="1" as="geometry">
                        <mxPoint x="-19" y="-790" as="sourcePoint"/>
                        <mxPoint x="-179" y="-790" as="targetPoint"/>
                    </mxGeometry>
                </mxCell>
                <mxCell id="60" value="" style="endArrow=none;startArrow=none;endFill=0;startFill=0;endSize=8;html=1;verticalAlign=bottom;labelBackgroundColor=none;strokeWidth=3;" parent="1" edge="1">
                    <mxGeometry width="160" relative="1" as="geometry">
                        <mxPoint x="-740" y="330" as="sourcePoint"/>
                        <mxPoint x="-740" y="-982" as="targetPoint"/>
                    </mxGeometry>
                </mxCell>
                <mxCell id="61" value="" style="endArrow=block;startArrow=none;endFill=0;startFill=0;endSize=8;html=1;verticalAlign=bottom;dashed=1;labelBackgroundColor=none;" parent="1" edge="1">
                    <mxGeometry width="160" relative="1" as="geometry">
                        <mxPoint x="-641" y="-679" as="sourcePoint"/>
                        <mxPoint x="-740" y="-679" as="targetPoint"/>
>>>>>>> 7842e23df99b755f4d72230fc0b68372dd5972ca:plan/uml/sequence/UC010.drawio
                        <Array as="points">
                            <mxPoint x="90" y="-990"/>
                            <mxPoint x="170" y="-990"/>
                        </Array>
                    </mxGeometry>
                </mxCell>
<<<<<<< HEAD:plan/uml/sequence/UC010.dio
                <mxCell id="58" value="" style="html=1;verticalAlign=bottom;labelBackgroundColor=none;endArrow=open;endFill=0;dashed=1;" parent="1" edge="1">
                    <mxGeometry width="160" relative="1" as="geometry">
                        <mxPoint x="-126" y="-946" as="sourcePoint"/>
                        <mxPoint x="-286" y="-946" as="targetPoint"/>
                    </mxGeometry>
                </mxCell>
                <mxCell id="60" value="" style="endArrow=none;startArrow=none;endFill=0;startFill=0;endSize=8;html=1;verticalAlign=bottom;labelBackgroundColor=none;strokeWidth=3;" parent="1" edge="1">
                    <mxGeometry width="160" relative="1" as="geometry">
                        <mxPoint x="-847" y="174" as="sourcePoint"/>
                        <mxPoint x="-847" y="-1138" as="targetPoint"/>
                    </mxGeometry>
                </mxCell>
                <mxCell id="61" value="" style="endArrow=block;startArrow=none;endFill=0;startFill=0;endSize=8;html=1;verticalAlign=bottom;dashed=1;labelBackgroundColor=none;" parent="1" edge="1">
                    <mxGeometry width="160" relative="1" as="geometry">
                        <mxPoint x="-748" y="-835" as="sourcePoint"/>
                        <mxPoint x="-847" y="-835" as="targetPoint"/>
                        <Array as="points">
                            <mxPoint x="-797" y="-835"/>
                        </Array>
                    </mxGeometry>
                </mxCell>
=======
>>>>>>> 7842e23df99b755f4d72230fc0b68372dd5972ca:plan/uml/sequence/UC010.drawio
                <mxCell id="67" value="execute()" style="html=1;verticalAlign=bottom;endArrow=block;curved=0;rounded=0;" parent="1" edge="1">
                    <mxGeometry width="80" relative="1" as="geometry">
                        <mxPoint x="-847" y="-520" as="sourcePoint"/>
                        <mxPoint x="-747" y="-520" as="targetPoint"/>
                    </mxGeometry>
                </mxCell>
                <mxCell id="68" value="complete()" style="html=1;verticalAlign=bottom;endArrow=block;curved=0;rounded=0;" parent="1" edge="1">
                    <mxGeometry width="80" relative="1" as="geometry">
                        <mxPoint x="-850" y="-100" as="sourcePoint"/>
                        <mxPoint x="-739.5" y="-100" as="targetPoint"/>
                    </mxGeometry>
                </mxCell>
                <mxCell id="70" value="" style="html=1;points=[[0,0,0,0,5],[0,1,0,0,-5],[1,0,0,0,5],[1,1,0,0,-5]];perimeter=orthogonalPerimeter;outlineConnect=0;targetShapes=umlLifeline;portConstraint=eastwest;newEdgeStyle={&quot;curved&quot;:0,&quot;rounded&quot;:0};" parent="1" vertex="1">
<<<<<<< HEAD:plan/uml/sequence/UC010.dio
                    <mxGeometry x="-748" y="-100" width="10" height="180" as="geometry"/>
                </mxCell>
                <mxCell id="74" value="" style="endArrow=classic;html=1;" parent="1" edge="1" source="72">
=======
                    <mxGeometry x="-641" y="56" width="10" height="180" as="geometry"/>
                </mxCell>
                <mxCell id="74" value="" style="endArrow=classic;html=1;" parent="1" edge="1">
>>>>>>> 7842e23df99b755f4d72230fc0b68372dd5972ca:plan/uml/sequence/UC010.drawio
                    <mxGeometry width="50" height="50" relative="1" as="geometry">
                        <mxPoint x="-727" y="-496" as="sourcePoint"/>
                        <mxPoint x="-450.49999999999955" y="-496" as="targetPoint"/>
                    </mxGeometry>
                </mxCell>
                <mxCell id="76" value="" style="endArrow=classic;html=1;" parent="1" target="73" edge="1">
                    <mxGeometry width="50" height="50" relative="1" as="geometry">
                        <mxPoint x="-738" y="-370" as="sourcePoint"/>
                        <mxPoint x="-461" y="-370" as="targetPoint"/>
                    </mxGeometry>
                </mxCell>
                <mxCell id="79" value="" style="endArrow=classic;html=1;" parent="1" edge="1">
                    <mxGeometry width="50" height="50" relative="1" as="geometry">
                        <mxPoint x="-277" y="-338" as="sourcePoint"/>
                        <mxPoint x="5" y="-338" as="targetPoint"/>
                        <Array as="points">
                            <mxPoint x="-290" y="-338"/>
                            <mxPoint x="-267" y="-338"/>
                            <mxPoint x="-97" y="-338"/>
                        </Array>
                    </mxGeometry>
                </mxCell>
                <mxCell id="81" value="" style="endArrow=none;dashed=1;html=1;entryX=0.5;entryY=1;entryDx=0;entryDy=0;" parent="1" source="83" target="44" edge="1">
                    <mxGeometry width="50" height="50" relative="1" as="geometry">
                        <mxPoint x="163" y="-46" as="sourcePoint"/>
                        <mxPoint x="83" y="-1146" as="targetPoint"/>
                        <Array as="points">
                            <mxPoint x="168" y="-1076"/>
                        </Array>
                    </mxGeometry>
                </mxCell>
                <mxCell id="82" value="" style="endArrow=open;startArrow=none;endFill=0;startFill=0;endSize=8;html=1;verticalAlign=bottom;labelBackgroundColor=none;strokeWidth=1;" parent="1" edge="1">
                    <mxGeometry width="160" relative="1" as="geometry">
                        <mxPoint x="18.92857142857133" y="-322" as="sourcePoint"/>
                        <mxPoint x="159" y="-322" as="targetPoint"/>
                        <Array as="points">
                            <mxPoint x="69" y="-322"/>
                        </Array>
                    </mxGeometry>
                </mxCell>
                <mxCell id="84" value="" style="endArrow=none;dashed=1;html=1;entryX=0.5;entryY=1;entryDx=0;entryDy=0;" parent="1" target="83" edge="1">
                    <mxGeometry width="50" height="50" relative="1" as="geometry">
                        <mxPoint x="163" y="90" as="sourcePoint"/>
                        <mxPoint x="168" y="-1002" as="targetPoint"/>
                        <Array as="points"/>
                    </mxGeometry>
                </mxCell>
                <mxCell id="83" value="" style="html=1;points=[[0,0,0,0,5],[0,1,0,0,-5],[1,0,0,0,5],[1,1,0,0,-5]];perimeter=orthogonalPerimeter;outlineConnect=0;targetShapes=umlLifeline;portConstraint=eastwest;newEdgeStyle={&quot;curved&quot;:0,&quot;rounded&quot;:0};" parent="1" vertex="1">
<<<<<<< HEAD:plan/uml/sequence/UC010.dio
                    <mxGeometry x="153" y="-320" width="10" height="50" as="geometry"/>
=======
                    <mxGeometry x="260" y="-164" width="10" height="50" as="geometry"/>
>>>>>>> 7842e23df99b755f4d72230fc0b68372dd5972ca:plan/uml/sequence/UC010.drawio
                </mxCell>
                <mxCell id="85" value="" style="html=1;verticalAlign=bottom;labelBackgroundColor=none;endArrow=open;endFill=0;dashed=1;" parent="1" edge="1">
                    <mxGeometry width="160" relative="1" as="geometry">
                        <mxPoint x="160" y="-266" as="sourcePoint"/>
                        <mxPoint x="20" y="-266" as="targetPoint"/>
                    </mxGeometry>
                </mxCell>
                <mxCell id="87" value="" style="html=1;verticalAlign=bottom;labelBackgroundColor=none;endArrow=open;endFill=0;dashed=1;" parent="1" edge="1">
                    <mxGeometry width="160" relative="1" as="geometry">
                        <mxPoint x="18.5" y="-240" as="sourcePoint"/>
                        <mxPoint x="-287.3571428571431" y="-240" as="targetPoint"/>
                        <Array as="points">
                            <mxPoint x="-71" y="-240"/>
                            <mxPoint x="-101" y="-240"/>
                        </Array>
                    </mxGeometry>
                </mxCell>
                <mxCell id="90" value="" style="html=1;verticalAlign=bottom;labelBackgroundColor=none;endArrow=open;endFill=0;dashed=1;" parent="1" edge="1">
                    <mxGeometry width="160" relative="1" as="geometry">
                        <mxPoint x="-297.5" y="-240" as="sourcePoint"/>
                        <mxPoint x="-745.3571428571431" y="-240" as="targetPoint"/>
                        <Array as="points">
                            <mxPoint x="-387.5" y="-240"/>
                            <mxPoint x="-417.5" y="-240"/>
                        </Array>
                    </mxGeometry>
                </mxCell>
                <mxCell id="93" value="" style="endArrow=block;startArrow=none;endFill=0;startFill=0;endSize=8;html=1;verticalAlign=bottom;dashed=1;labelBackgroundColor=none;" parent="1" edge="1">
                    <mxGeometry width="160" relative="1" as="geometry">
                        <mxPoint x="-748" y="-156" as="sourcePoint"/>
                        <mxPoint x="-847" y="-156" as="targetPoint"/>
                        <Array as="points"/>
                    </mxGeometry>
                </mxCell>
<<<<<<< HEAD
                <mxCell id="95" value="" style="endArrow=classic;html=1;" parent="1" source="49" target="42" edge="1">
=======
<<<<<<< HEAD:plan/uml/sequence/UC010.dio
                <mxCell id="95" value="" style="endArrow=classic;html=1;" parent="1" source="41" edge="1">
=======
                <mxCell id="95" value="" style="endArrow=classic;html=1;" parent="1" source="49" target="50" edge="1">
>>>>>>> 7842e23df99b755f4d72230fc0b68372dd5972ca:plan/uml/sequence/UC010.drawio
>>>>>>> 0894ed2775b1d53241c220fcd7a25aa28018077a
                    <mxGeometry width="50" height="50" relative="1" as="geometry">
                        <mxPoint x="38" y="-1036" as="sourcePoint"/>
                        <mxPoint x="172.5" y="-1036" as="targetPoint"/>
                        <Array as="points">
<<<<<<< HEAD:plan/uml/sequence/UC010.dio
                            <mxPoint x="93" y="-1036"/>
                            <mxPoint x="103" y="-1036"/>
                            <mxPoint x="123" y="-1036"/>
=======
                            <mxPoint x="40" y="-880"/>
                            <mxPoint x="50" y="-880"/>
                            <mxPoint x="70" y="-880"/>
<<<<<<< HEAD
=======
                            <mxPoint x="170" y="-880"/>
>>>>>>> 7842e23df99b755f4d72230fc0b68372dd5972ca:plan/uml/sequence/UC010.drawio
>>>>>>> 0894ed2775b1d53241c220fcd7a25aa28018077a
                        </Array>
                    </mxGeometry>
                </mxCell>
                <mxCell id="100" value="confirm()" style="html=1;verticalAlign=bottom;endArrow=block;curved=0;rounded=0;" parent="1" edge="1">
                    <mxGeometry width="80" relative="1" as="geometry">
                        <mxPoint x="-842" y="-696" as="sourcePoint"/>
                        <mxPoint x="-738" y="-696" as="targetPoint"/>
                        <Array as="points">
                            <mxPoint x="-802" y="-696"/>
                        </Array>
                    </mxGeometry>
                </mxCell>
                <mxCell id="101" value="商品情報セット" style="html=1;verticalAlign=bottom;endArrow=block;curved=0;rounded=0;" parent="1" target="35" edge="1">
                    <mxGeometry x="0.0039" width="80" relative="1" as="geometry">
                        <mxPoint x="-738" y="-686" as="sourcePoint"/>
                        <mxPoint x="-634" y="-686" as="targetPoint"/>
                        <mxPoint as="offset"/>
                    </mxGeometry>
                </mxCell>
                <mxCell id="102" value="" style="endArrow=block;startArrow=none;endFill=0;startFill=0;endSize=8;html=1;verticalAlign=bottom;dashed=1;labelBackgroundColor=none;" parent="1" edge="1">
                    <mxGeometry width="160" relative="1" as="geometry">
                        <mxPoint x="-748" y="-596" as="sourcePoint"/>
                        <mxPoint x="-847" y="-596" as="targetPoint"/>
                        <Array as="points">
                            <mxPoint x="-797" y="-596"/>
                        </Array>
                    </mxGeometry>
                </mxCell>
                <mxCell id="103" value="" style="endArrow=block;startArrow=none;endFill=0;startFill=0;endSize=8;html=1;verticalAlign=bottom;dashed=1;labelBackgroundColor=none;" parent="1" target="36" edge="1">
                    <mxGeometry width="160" relative="1" as="geometry">
                        <mxPoint x="-594" y="-646" as="sourcePoint"/>
                        <mxPoint x="-693" y="-646" as="targetPoint"/>
                        <Array as="points">
                            <mxPoint x="-643" y="-646"/>
                        </Array>
                    </mxGeometry>
                </mxCell>
                <mxCell id="104" value="完了画面" style="html=1;verticalAlign=bottom;endArrow=block;curved=0;rounded=0;" parent="1" edge="1">
<<<<<<< HEAD:plan/uml/sequence/UC010.dio
                    <mxGeometry x="-0.0588" y="-10" width="80" relative="1" as="geometry">
                        <mxPoint x="-740" y="80" as="sourcePoint"/>
                        <mxPoint x="-850.5" y="80" as="targetPoint"/>
                        <mxPoint as="offset"/>
                    </mxGeometry>
                </mxCell>
                <mxCell id="105" value="Product" style="html=1;verticalAlign=bottom;labelBackgroundColor=none;endArrow=open;endFill=0;dashed=1;" parent="1" edge="1" target="72">
=======
                    <mxGeometry width="80" relative="1" as="geometry">
                        <mxPoint x="-631" y="236" as="sourcePoint"/>
                        <mxPoint x="-741.5" y="236" as="targetPoint"/>
                    </mxGeometry>
                </mxCell>
                <mxCell id="105" value="Product" style="html=1;verticalAlign=bottom;labelBackgroundColor=none;endArrow=open;endFill=0;dashed=1;" parent="1" edge="1">
>>>>>>> 7842e23df99b755f4d72230fc0b68372dd5972ca:plan/uml/sequence/UC010.drawio
                    <mxGeometry x="0.0021" width="160" relative="1" as="geometry">
                        <mxPoint x="-446" y="-416" as="sourcePoint"/>
                        <mxPoint x="-727" y="-416" as="targetPoint"/>
                        <mxPoint as="offset"/>
                    </mxGeometry>
                </mxCell>
                <mxCell id="106" value="selectAll()" style="text;html=1;align=center;verticalAlign=middle;whiteSpace=wrap;rounded=0;" parent="1" vertex="1">
<<<<<<< HEAD:plan/uml/sequence/UC010.dio
                    <mxGeometry x="-241" y="-1084" width="60" height="30" as="geometry"/>
                </mxCell>
                <mxCell id="107" value="SQL(SELECT PRODUCT_CATEGORYS)" style="text;html=1;align=center;verticalAlign=middle;whiteSpace=wrap;rounded=0;" parent="1" vertex="1">
                    <mxGeometry x="-19" y="-1066" width="60" height="30" as="geometry"/>
                </mxCell>
                <mxCell id="108" value="ListMProductCategory&amp;gt;" style="text;html=1;align=center;verticalAlign=middle;whiteSpace=wrap;rounded=0;" parent="1" vertex="1">
                    <mxGeometry x="-21" y="-1020" width="60" height="30" as="geometry"/>
                </mxCell>
                <mxCell id="109" value="&lt;span style=&quot;color: rgb(0, 0, 0);&quot;&gt;ListMProductCategory&amp;gt;&lt;/span&gt;" style="text;html=1;align=center;verticalAlign=middle;whiteSpace=wrap;rounded=0;" parent="1" vertex="1">
                    <mxGeometry x="-241" y="-966" width="60" height="30" as="geometry"/>
                </mxCell>
                <mxCell id="110" value="ProductFormForm" style="text;html=1;align=center;verticalAlign=middle;whiteSpace=wrap;rounded=0;" parent="1" vertex="1">
                    <mxGeometry x="-692" y="-676" width="60" height="30" as="geometry"/>
                </mxCell>
                <mxCell id="112" value="確認画面" style="text;html=1;align=center;verticalAlign=middle;whiteSpace=wrap;rounded=0;" parent="1" vertex="1">
                    <mxGeometry x="-817" y="-626" width="60" height="30" as="geometry"/>
                </mxCell>
                <mxCell id="113" value="入力画面" style="text;html=1;align=center;verticalAlign=middle;whiteSpace=wrap;rounded=0;" parent="1" vertex="1">
                    <mxGeometry x="-817" y="-865" width="60" height="30" as="geometry"/>
                </mxCell>
                <mxCell id="114" value="FormからEntityの変換" style="text;html=1;align=center;verticalAlign=middle;whiteSpace=wrap;rounded=0;" parent="1" vertex="1">
                    <mxGeometry x="-640" y="-530" width="120" height="30" as="geometry"/>
                </mxCell>
                <mxCell id="116" value="addProduct(Product)" style="text;html=1;align=center;verticalAlign=middle;whiteSpace=wrap;rounded=0;" parent="1" vertex="1">
                    <mxGeometry x="-580" y="-396" width="60" height="30" as="geometry"/>
                </mxCell>
                <mxCell id="117" value="insert(Product)" style="text;html=1;align=center;verticalAlign=middle;whiteSpace=wrap;rounded=0;" parent="1" vertex="1">
                    <mxGeometry x="-164" y="-374" width="60" height="30" as="geometry"/>
                </mxCell>
                <mxCell id="118" value="SQL(INSERT)" style="text;html=1;align=center;verticalAlign=middle;whiteSpace=wrap;rounded=0;" parent="1" vertex="1">
                    <mxGeometry x="63" y="-346" width="60" height="30" as="geometry"/>
                </mxCell>
                <mxCell id="119" value="void" style="text;html=1;align=center;verticalAlign=middle;whiteSpace=wrap;rounded=0;" parent="1" vertex="1">
                    <mxGeometry x="53" y="-296" width="60" height="30" as="geometry"/>
                </mxCell>
                <mxCell id="120" value="void" style="text;html=1;align=center;verticalAlign=middle;whiteSpace=wrap;rounded=0;" parent="1" vertex="1">
                    <mxGeometry x="-167" y="-267" width="60" height="30" as="geometry"/>
                </mxCell>
                <mxCell id="121" value="void" style="text;html=1;align=center;verticalAlign=middle;whiteSpace=wrap;rounded=0;" parent="1" vertex="1">
                    <mxGeometry x="-654" y="-265" width="60" height="30" as="geometry"/>
                </mxCell>
                <mxCell id="122" value="リダイレクト" style="text;html=1;align=center;verticalAlign=middle;whiteSpace=wrap;rounded=0;" parent="1" vertex="1">
                    <mxGeometry x="-838" y="-186" width="90" height="30" as="geometry"/>
=======
                    <mxGeometry x="-120" y="-930" width="60" height="30" as="geometry"/>
                </mxCell>
                <mxCell id="107" value="SQL(SELECT PRODUCT_CATEGORYS)" style="text;html=1;align=center;verticalAlign=middle;whiteSpace=wrap;rounded=0;" parent="1" vertex="1">
                    <mxGeometry x="30" y="-910" width="60" height="30" as="geometry"/>
                </mxCell>
                <mxCell id="108" value="ListMProductCategory&amp;gt;" style="text;html=1;align=center;verticalAlign=middle;whiteSpace=wrap;rounded=0;" parent="1" vertex="1">
                    <mxGeometry x="20" y="-850" width="60" height="30" as="geometry"/>
                </mxCell>
                <mxCell id="109" value="&lt;span style=&quot;color: rgb(0, 0, 0);&quot;&gt;ListMProductCategory&amp;gt;&lt;/span&gt;" style="text;html=1;align=center;verticalAlign=middle;whiteSpace=wrap;rounded=0;" parent="1" vertex="1">
                    <mxGeometry x="-134" y="-810" width="60" height="30" as="geometry"/>
                </mxCell>
                <mxCell id="110" value="ProductFormForm" style="text;html=1;align=center;verticalAlign=middle;whiteSpace=wrap;rounded=0;" parent="1" vertex="1">
                    <mxGeometry x="-585" y="-520" width="60" height="30" as="geometry"/>
                </mxCell>
                <mxCell id="112" value="確認画面" style="text;html=1;align=center;verticalAlign=middle;whiteSpace=wrap;rounded=0;" parent="1" vertex="1">
                    <mxGeometry x="-710" y="-470" width="60" height="30" as="geometry"/>
                </mxCell>
                <mxCell id="113" value="入力画面" style="text;html=1;align=center;verticalAlign=middle;whiteSpace=wrap;rounded=0;" parent="1" vertex="1">
                    <mxGeometry x="-710" y="-709" width="60" height="30" as="geometry"/>
                </mxCell>
                <mxCell id="114" value="FormからEntityの変換" style="text;html=1;align=center;verticalAlign=middle;whiteSpace=wrap;rounded=0;" parent="1" vertex="1">
                    <mxGeometry x="-533" y="-345" width="120" height="30" as="geometry"/>
                </mxCell>
                <mxCell id="116" value="addProduct(Product)" style="text;html=1;align=center;verticalAlign=middle;whiteSpace=wrap;rounded=0;" parent="1" vertex="1">
                    <mxGeometry x="-473" y="-240" width="60" height="30" as="geometry"/>
                </mxCell>
                <mxCell id="117" value="insert(Product)" style="text;html=1;align=center;verticalAlign=middle;whiteSpace=wrap;rounded=0;" parent="1" vertex="1">
                    <mxGeometry x="-90" y="-190" width="60" height="30" as="geometry"/>
                </mxCell>
                <mxCell id="118" value="SQL(INSERT)" style="text;html=1;align=center;verticalAlign=middle;whiteSpace=wrap;rounded=0;" parent="1" vertex="1">
                    <mxGeometry x="170" y="-190" width="60" height="30" as="geometry"/>
                </mxCell>
                <mxCell id="119" value="void" style="text;html=1;align=center;verticalAlign=middle;whiteSpace=wrap;rounded=0;" parent="1" vertex="1">
                    <mxGeometry x="160" y="-140" width="60" height="30" as="geometry"/>
                </mxCell>
                <mxCell id="120" value="void" style="text;html=1;align=center;verticalAlign=middle;whiteSpace=wrap;rounded=0;" parent="1" vertex="1">
                    <mxGeometry x="-60" y="-120" width="60" height="30" as="geometry"/>
                </mxCell>
                <mxCell id="121" value="void" style="text;html=1;align=center;verticalAlign=middle;whiteSpace=wrap;rounded=0;" parent="1" vertex="1">
                    <mxGeometry x="-460" y="-100" width="60" height="30" as="geometry"/>
                </mxCell>
                <mxCell id="122" value="リダイレクト" style="text;html=1;align=center;verticalAlign=middle;whiteSpace=wrap;rounded=0;" parent="1" vertex="1">
                    <mxGeometry x="-731" y="-30" width="90" height="30" as="geometry"/>
>>>>>>> 7842e23df99b755f4d72230fc0b68372dd5972ca:plan/uml/sequence/UC010.drawio
                </mxCell>
                <mxCell id="123" value="" style="endArrow=classic;html=1;" parent="1" edge="1">
                    <mxGeometry width="50" height="50" relative="1" as="geometry">
                        <mxPoint x="-737.5526315789473" y="-896" as="sourcePoint"/>
                        <mxPoint x="-737.5526315789473" y="-846" as="targetPoint"/>
                        <Array as="points">
                            <mxPoint x="-612" y="-896"/>
                            <mxPoint x="-612" y="-846"/>
                        </Array>
                    </mxGeometry>
                </mxCell>
                <mxCell id="126" value="" style="endArrow=classic;html=1;" parent="1" edge="1">
                    <mxGeometry width="50" height="50" relative="1" as="geometry">
                        <mxPoint x="-849" y="-796" as="sourcePoint"/>
                        <mxPoint x="-849" y="-746" as="targetPoint"/>
                        <Array as="points">
                            <mxPoint x="-757" y="-796"/>
                            <mxPoint x="-757" y="-746"/>
                        </Array>
                    </mxGeometry>
                </mxCell>
                <mxCell id="127" value="" style="endArrow=classic;html=1;" parent="1" edge="1">
                    <mxGeometry width="50" height="50" relative="1" as="geometry">
                        <mxPoint x="-736" y="-34" as="sourcePoint"/>
                        <mxPoint x="-736" y="16" as="targetPoint"/>
                        <Array as="points">
                            <mxPoint x="-644" y="-34"/>
                            <mxPoint x="-644" y="16"/>
                        </Array>
                    </mxGeometry>
                </mxCell>
                <mxCell id="128" value="Modelにセット（プルダウン用）" style="text;html=1;align=center;verticalAlign=middle;whiteSpace=wrap;rounded=0;" parent="1" vertex="1">
<<<<<<< HEAD:plan/uml/sequence/UC010.dio
                    <mxGeometry x="-717" y="-926" width="100" height="30" as="geometry"/>
                </mxCell>
                <mxCell id="129" value="商品入力" style="text;html=1;align=center;verticalAlign=middle;whiteSpace=wrap;rounded=0;" parent="1" vertex="1">
                    <mxGeometry x="-823" y="-826" width="60" height="30" as="geometry"/>
                </mxCell>
                <mxCell id="130" value="セッション破棄" style="text;html=1;align=center;verticalAlign=middle;whiteSpace=wrap;rounded=0;" parent="1" vertex="1">
                    <mxGeometry x="-727" y="-66" width="100" height="30" as="geometry"/>
                </mxCell>
                <mxCell id="131" value="バリデート" style="text;html=1;align=center;verticalAlign=middle;whiteSpace=wrap;rounded=0;" parent="1" vertex="1">
                    <mxGeometry x="-712" y="-646" width="100" height="30" as="geometry"/>
=======
                    <mxGeometry x="-610" y="-770" width="100" height="30" as="geometry"/>
                </mxCell>
                <mxCell id="129" value="商品入力" style="text;html=1;align=center;verticalAlign=middle;whiteSpace=wrap;rounded=0;" parent="1" vertex="1">
                    <mxGeometry x="-716" y="-670" width="60" height="30" as="geometry"/>
                </mxCell>
                <mxCell id="130" value="セッション破棄" style="text;html=1;align=center;verticalAlign=middle;whiteSpace=wrap;rounded=0;" parent="1" vertex="1">
                    <mxGeometry x="-620" y="90" width="100" height="30" as="geometry"/>
                </mxCell>
                <mxCell id="131" value="バリデート" style="text;html=1;align=center;verticalAlign=middle;whiteSpace=wrap;rounded=0;" parent="1" vertex="1">
                    <mxGeometry x="-605" y="-490" width="100" height="30" as="geometry"/>
>>>>>>> 7842e23df99b755f4d72230fc0b68372dd5972ca:plan/uml/sequence/UC010.drawio
                </mxCell>
                <mxCell id="132" value="" style="endArrow=classic;html=1;" parent="1" target="36" edge="1">
                    <mxGeometry width="50" height="50" relative="1" as="geometry">
                        <mxPoint x="-729.7726315789473" y="-616" as="sourcePoint"/>
                        <mxPoint x="-729.7726315789473" y="-566" as="targetPoint"/>
                        <Array as="points">
                            <mxPoint x="-604.22" y="-616"/>
                            <mxPoint x="-604" y="-606"/>
                            <mxPoint x="-667" y="-606"/>
                        </Array>
                    </mxGeometry>
                </mxCell>
<<<<<<< HEAD
                <mxCell id="133" value="" style="shape=partialRectangle;whiteSpace=wrap;html=1;bottom=0;right=0;fillColor=none;" parent="1" vertex="1">
                    <mxGeometry x="-300" y="-50" width="120" height="60" as="geometry"/>
=======
<<<<<<< HEAD:plan/uml/sequence/UC010.dio
=======
                <mxCell id="50" value="" style="html=1;points=[[0,0,0,0,5],[0,1,0,0,-5],[1,0,0,0,5],[1,1,0,0,-5]];perimeter=orthogonalPerimeter;outlineConnect=0;targetShapes=umlLifeline;portConstraint=eastwest;newEdgeStyle={&quot;curved&quot;:0,&quot;rounded&quot;:0};" parent="1" vertex="1">
                    <mxGeometry x="270" y="-880" width="10" height="48" as="geometry"/>
                </mxCell>
                <mxCell id="133" style="edgeStyle=none;html=1;exitX=1;exitY=0.75;exitDx=0;exitDy=0;entryX=1;entryY=0.25;entryDx=0;entryDy=0;" edge="1" parent="1" source="108" target="108">
                    <mxGeometry relative="1" as="geometry"/>
                </mxCell>
                <mxCell id="136" style="edgeStyle=none;html=1;exitX=1;exitY=0.75;exitDx=0;exitDy=0;entryX=1;entryY=0.5;entryDx=0;entryDy=0;" edge="1" parent="1" source="108" target="108">
                    <mxGeometry relative="1" as="geometry"/>
>>>>>>> 0894ed2775b1d53241c220fcd7a25aa28018077a
                </mxCell>
>>>>>>> 7842e23df99b755f4d72230fc0b68372dd5972ca:plan/uml/sequence/UC010.drawio
            </root>
        </mxGraphModel>
    </diagram>
</mxfile>